<?xml version="1.0" encoding="UTF-8" standalone="no"?>
<svg width="52px" height="52px" viewBox="0 0 52 52" version="1.1" xmlns="http://www.w3.org/2000/svg" xmlns:xlink="http://www.w3.org/1999/xlink">
	<style type="text/css">
		#duplii-logo-face path {
			fill: red;
			-webkit-animation: scaleMe .5s cubic-bezier(0, -2, 0, 2.5);
			-webkit-transform-origin: center center;
		}
		
		@-webkit-keyframes scaleMe {
			0% {
				-webkit-transform: scale(0);
			}
			100% {
				-webkit-transform: scale(1);
			}
		}
	</style>
    <title>Duplii Logo Face</title>
    <defs></defs>
    <g id="Page-1" stroke="none" stroke-width="1" fill="none" fill-rule="evenodd">
        <g id="duplii-logo-face" fill="#FFFFFF">
            <path d="M46,12 C49.3137085,12 52,9.3137085 52,6 C52,2.6862915 49.3137085,0 46,0 C42.6862915,0 40,2.6862915 40,6 C40,9.3137085 42.6862915,12 46,12 Z" id="right-eye">
            	<animate
            		attributeName="d"
            		begin="1000ms"
            		dur="200ms"
            		repeatCount="1"
            		values="
            			M46,12 C49.3137085,12 52,9.3137085 52,6 C52,2.6862915 49.3137085,0 46,0 C42.6862915,0 40,2.6862915 40,6 C40,9.3137085 42.6862915,12 46,12 Z;
	            		M46,12 C49.3137085,12 52,9.3137085 52,6 C52,2.6862915 52,9.99999986 46,10 C40,10.0000001 40,2.6862915 40,6 C40,9.3137085 42.6862915,12 46,12 Z;
	            		M46,12 C49.3137085,12 52,9.3137085 52,6 C52,2.6862915 49.3137085,0 46,0 C42.6862915,0 40,2.6862915 40,6 C40,9.3137085 42.6862915,12 46,12 Z
	            	"
            		fill="freeze"
            	/>
            </path>
            <path d="M6,12 C9.3137085,12 12,9.3137085 12,6 C12,2.6862915 9.3137085,0 6,0 C2.6862915,0 0,2.6862915 0,6 C0,9.3137085 2.6862915,12 6,12 Z" id="left-eye"></path>
            <path d="M12,26 L0,26 C0,40.336 11.662,52 26,52 C40.336,52 52,40.336 52,26 L40,26 C40,33.72 33.719,40 26,40 C18.28,40 12,33.72 12,26 Z" id="smile"></path>
        </g>
    </g>
</svg>