<?xml version="1.0" encoding="utf-8"?>
<!DOCTYPE svg PUBLIC "-//W3C//DTD SVG 1.1//EN" "http://www.w3.org/Graphics/SVG/1.1/DTD/svg11.dtd">
<svg version="1.1" xmlns="http://www.w3.org/2000/svg" xmlns:xlink="http://www.w3.org/1999/xlink" x="0px" y="0px" viewBox="0 0 52.041 52" enable-background="new 0 0 52.041 52" xml:space="preserve" id="duplii-logo-blinking">
	<g opacity="1" id="duplii-logo-face" stroke-width="1.5" stroke-miterlimit="10" fill="#FFFFFF" stroke="#FFFFFF">
		<path id="right-eye" d="M46.021,1c-2.758,0-5,2.246-5,5.005 c0,2.76,2.242,5.006,5,5.006c2.756,0,5-2.246,5-5.006C51.021,3.246,48.776,1,46.021,1z"/>
		<path id="left-eye" d="M6.021,1c-2.758,0-5,2.246-5,5.005 c0,2.76,2.242,5.006,5,5.006c2.756,0,5-2.246,5-5.006C11.021,3.246,8.776,1,6.021,1z"/>
		<path id="smile" d="M40.987,26.973 c-0.518,7.815-7.033,14.016-14.967,14.016c-7.936,0-14.451-6.201-14.967-14.016H1.04C1.567,40.312,12.569,51,26.021,51
			c13.449,0,24.453-10.688,24.98-24.027H40.987z"/>
	</g>
	<animate
		xlink:href="#right-eye"
		id="blink"
		attributeName="d"
		begin="indefinite"
		dur="200ms"
		repeatCount="1"
		values="
			M46.021,1c-2.758,0-5,2.246-5,5.005 c0,2.76,2.242,5.006,5,5.006c2.756,0,5-2.246,5-5.006C51.021,3.246,48.776,1,46.021,1z;
			M46.021,11.011c-5.654,0-5-7.766-5-5.006 C41.021,8.766,43.263,11.011,46.021,11.011c2.756,0,5-2.246,5-5.006C51.021,3.246,51.675,11.011,46.021,11.011z;
			M46.021,1c-2.758,0-5,2.246-5,5.005 c0,2.76,2.242,5.006,5,5.006c2.756,0,5-2.246,5-5.006C51.021,3.246,48.776,1,46.021,1z
		"
		fill="freeze"
	/>
</svg>
